<svg width="192" height="56" viewBox="0 0 192 56" fill="none" xmlns="http://www.w3.org/2000/svg">
<path d="M0 37.7828C0 36.1335 0.358768 34.5539 1.08166 33.0385C1.80187 31.5258 2.78715 30.1737 4.03748 28.9796C5.28513 27.7801 6.72021 26.8805 8.34269 26.2808C6.08567 24.4174 4.24364 22.3022 2.8166 19.9301C1.39491 17.5526 0.685408 14.8324 0.685408 11.7695C0.685408 10.7146 0.859437 9.62491 1.21017 8.50309C1.56626 7.37592 2.05087 6.32907 2.66666 5.36522C3.27978 4.39601 3.96519 3.61957 4.72289 3.04126C5.47791 2.4576 6.27844 2.16309 7.12181 2.16309H41.4779C41.7991 2.72801 42.0455 3.29829 42.2168 3.8766C42.3935 4.45491 42.4846 5.09748 42.4846 5.8043C42.4846 7.14031 42.1847 8.33709 41.585 9.39198C40.9852 10.4495 40.2088 11.3384 39.261 12.0586C38.3105 12.7815 37.3172 13.3331 36.2838 13.7186C35.2476 14.1041 34.2864 14.2969 33.4029 14.2969C31.4324 14.2969 29.4966 13.9649 27.5984 13.3009C25.6974 12.6316 23.8607 11.8016 22.083 10.8163C20.3052 9.83106 18.581 8.8565 16.9103 7.89265C15.2396 6.92344 13.6278 6.10417 12.0803 5.44018C10.5381 4.77084 9.06023 4.43349 7.64658 4.43349C7.29584 4.43349 7.00669 4.62626 6.77911 5.0118C6.54886 5.39734 6.4364 5.73469 6.4364 6.01849C6.4364 7.24741 6.96385 8.32906 8.02141 9.26346C9.0763 10.1925 10.5007 11.0359 12.2945 11.7909C14.0857 12.5486 16.0883 13.2983 18.3025 14.0399C20.5221 14.7762 22.8273 15.5928 25.2209 16.4924C27.6198 17.3919 29.925 18.4415 32.1392 19.6409C34.3587 20.835 36.3641 22.2487 38.1579 23.8819C39.9491 25.5178 41.3734 27.4535 42.431 29.6864C43.4859 31.922 44.016 34.5539 44.016 37.5793C44.016 41.0277 43.2128 44.1415 41.6064 46.9179C40.0053 49.6971 37.5957 51.8952 34.3775 53.515C31.1646 55.1348 27.095 55.9621 22.1686 55.9996C19.3842 55.9996 16.6693 55.6194 14.0294 54.8644C11.3949 54.1094 9.02007 52.9661 6.90762 51.4373C4.80053 49.9032 3.12182 47.9942 1.87416 45.7078C0.623828 43.416 0 40.7761 0 37.7828ZM37.2048 47.1321C37.2048 45.6542 36.6158 44.2834 35.4377 43.0197C34.2597 41.7506 32.6747 40.5351 30.6827 39.3785C28.6961 38.2165 26.5087 37.0278 24.1178 35.8122C21.7242 34.5994 19.2878 33.3142 16.8032 31.9568C14.3239 30.6021 11.9973 29.0974 9.8206 27.4481C9.84738 28.6048 10.1633 29.9943 10.763 31.6141C11.3628 33.2366 12.1794 34.9421 13.2155 36.7332C14.257 38.5271 15.4699 40.2754 16.8567 41.9809C18.249 43.689 19.7697 45.2446 21.419 46.6502C23.0736 48.0585 24.7978 49.175 26.5917 50.0023C28.3909 50.8323 30.2222 51.2446 32.0856 51.2446C33.6332 51.2446 34.8728 50.8323 35.8018 50.0023C36.7362 49.175 37.2048 48.2191 37.2048 47.1321Z" fill="#F83758"/>
<path d="M44.0664 35.2556C44.0664 31.1004 44.9071 27.4779 46.5938 24.3855C48.2859 21.2878 50.6447 18.8782 53.6728 17.1566C56.6983 15.4297 60.2163 14.5649 64.2217 14.5649C68.2699 14.5649 71.8067 15.4297 74.8348 17.1566C77.8602 18.8782 80.2163 21.2878 81.903 24.3855C83.5951 27.4779 84.4412 31.1004 84.4412 35.2556C84.4412 39.4056 83.5951 43.0387 81.903 46.1579C80.2163 49.2716 77.8602 51.692 74.8348 53.4189C71.8067 55.1378 68.2699 55.9999 64.2217 55.9999C60.2163 55.9999 56.6983 55.1378 53.6728 53.4189C50.6447 51.692 48.2859 49.2716 46.5938 46.1579C44.9071 43.0387 44.0664 39.4056 44.0664 35.2556ZM64.2752 16.257C63.7103 16.257 63.2177 16.5997 62.7973 17.2851C62.3743 17.9706 62.1655 19.2825 62.1655 21.2155C62.1655 21.3949 62.1655 21.9518 62.1655 22.8862C62.1655 23.8152 62.1655 24.9317 62.1655 26.2383C62.1655 27.5395 62.1655 28.8487 62.1655 30.1686C62.1655 31.4832 62.1655 32.6157 62.1655 33.5635C62.1655 34.514 62.1655 35.0789 62.1655 35.2556C62.1655 35.427 62.1655 35.9919 62.1655 36.9477C62.1655 37.8982 62.1655 39.0334 62.1655 40.3533C62.1655 41.6679 62.1655 42.9772 62.1655 44.2837C62.1655 45.5849 62.1655 46.7014 62.1655 47.6358C62.1655 48.5648 62.1655 49.119 62.1655 49.2957C62.1655 51.2315 62.3743 52.5407 62.7973 53.2261C63.2177 53.9115 63.7103 54.2542 64.2752 54.2542C64.875 54.2542 65.3729 53.9115 65.7745 53.2261C66.1815 52.5407 66.385 51.2315 66.385 49.2957C66.385 49.119 66.385 48.5648 66.385 47.6358C66.385 46.7014 66.385 45.5849 66.385 44.2837C66.385 42.9772 66.385 41.6679 66.385 40.3533C66.385 39.0334 66.385 37.8982 66.385 36.9477C66.385 35.9919 66.385 35.427 66.385 35.2556C66.385 35.0789 66.385 34.514 66.385 33.5635C66.385 32.6157 66.385 31.4832 66.385 30.1686C66.385 28.8487 66.385 27.5395 66.385 26.2383C66.385 24.9317 66.385 23.8152 66.385 22.8862C66.385 21.9518 66.385 21.3949 66.385 21.2155C66.385 19.2825 66.1815 17.9706 65.7745 17.2851C65.3729 16.5997 64.875 16.257 64.2752 16.257Z" fill="#F83758"/>
<path d="M84.4922 37.7828C84.4922 36.1335 84.851 34.5539 85.5738 33.0385C86.2941 31.5258 87.2793 30.1737 88.5297 28.9796C89.7773 27.7801 91.2124 26.8805 92.8349 26.2808C90.5779 24.4174 88.7358 22.3022 87.3088 19.9301C85.8871 17.5526 85.1776 14.8324 85.1776 11.7695C85.1776 10.7146 85.3516 9.62491 85.7024 8.50309C86.0585 7.37592 86.5431 6.32907 87.1589 5.36522C87.772 4.39601 88.4574 3.61957 89.2151 3.04126C89.9701 2.4576 90.7706 2.16309 91.614 2.16309H125.97C126.291 2.72801 126.538 3.29829 126.709 3.8766C126.886 4.45491 126.977 5.09748 126.977 5.8043C126.977 7.14031 126.677 8.33709 126.077 9.39198C125.477 10.4495 124.701 11.3384 123.753 12.0586C122.803 12.7815 121.809 13.3331 120.776 13.7186C119.74 14.1041 118.779 14.2969 117.895 14.2969C115.925 14.2969 113.989 13.9649 112.091 13.3009C110.19 12.6316 108.353 11.8016 106.575 10.8163C104.797 9.83106 103.073 8.8565 101.402 7.89265C99.7318 6.92344 98.12 6.10417 96.5725 5.44018C95.0303 4.77084 93.5524 4.43349 92.1388 4.43349C91.788 4.43349 91.4989 4.62626 91.2713 5.0118C91.041 5.39734 90.9286 5.73469 90.9286 6.01849C90.9286 7.24741 91.456 8.32906 92.5136 9.26346C93.5685 10.1925 94.9928 11.0359 96.7867 11.7909C98.5778 12.5486 100.581 13.2983 102.795 14.0399C105.014 14.7762 107.319 15.5928 109.713 16.4924C112.112 17.3919 114.417 18.4415 116.631 19.6409C118.851 20.835 120.856 22.2487 122.65 23.8819C124.441 25.5178 125.866 27.4535 126.923 29.6864C127.978 31.922 128.508 34.5539 128.508 37.5793C128.508 41.0277 127.705 44.1415 126.099 46.9179C124.497 49.6971 122.088 51.8952 118.87 53.515C115.657 55.1348 111.587 55.9621 106.661 55.9996C103.876 55.9996 101.162 55.6194 98.5216 54.8644C95.8871 54.1094 93.5123 52.9661 91.3998 51.4373C89.2927 49.9032 87.614 47.9942 86.3663 45.7078C85.116 43.416 84.4922 40.7761 84.4922 37.7828ZM121.697 47.1321C121.697 45.6542 121.108 44.2834 119.93 43.0197C118.752 41.7506 117.167 40.5351 115.175 39.3785C113.188 38.2165 111.001 37.0278 108.61 35.8122C106.216 34.5994 103.78 33.3142 101.295 31.9568C98.8161 30.6021 96.4895 29.0974 94.3128 27.4481C94.3396 28.6048 94.6555 29.9943 95.2552 31.6141C95.855 33.2366 96.6716 34.9421 97.7077 36.7332C98.7492 38.5271 99.962 40.2754 101.349 41.9809C102.741 43.689 104.262 45.2446 105.911 46.6502C107.566 48.0585 109.29 49.175 111.084 50.0023C112.883 50.8323 114.714 51.2446 116.578 51.2446C118.125 51.2446 119.365 50.8323 120.294 50.0023C121.228 49.175 121.697 48.2191 121.697 47.1321Z" fill="#F83758"/>
<path d="M129.929 15.6251H148.928V54.9396H129.929V15.6251ZM129.351 6.43639C129.351 4.43104 129.771 2.97188 130.615 2.05622C131.455 1.14324 132.642 0.572957 134.17 0.342703C135.704 0.115127 137.474 0 139.482 0C141.488 0 143.247 0.115127 144.762 0.342703C146.275 0.572957 147.453 1.14324 148.296 2.05622C149.137 2.97188 149.56 4.43104 149.56 6.43639C149.56 8.05887 149.303 9.31724 148.789 10.2168C148.28 11.1111 147.571 11.7536 146.658 12.1445C145.742 12.5301 144.679 12.7603 143.466 12.8299C142.251 12.8942 140.923 12.9263 139.482 12.9263C138.004 12.9263 136.647 12.8942 135.413 12.8299C134.184 12.7603 133.113 12.5301 132.2 12.1445C131.284 11.7536 130.583 11.1111 130.09 10.2168C129.597 9.31724 129.351 8.05887 129.351 6.43639Z" fill="#F83758"/>
<path d="M151.83 17.7347H149.089V15.6784C150.845 15.2233 152.743 14.4843 154.786 13.4616C156.826 12.4415 158.835 11.2715 160.805 9.94887C162.776 8.62893 164.524 7.29292 166.053 5.94353C167.579 4.58878 168.698 3.32774 169.405 2.16309H169.93V15.6249H172.778V17.7347H169.93V44.9688C169.93 46.4467 170.122 47.9086 170.508 49.349C170.899 50.7921 171.517 51.9353 172.361 52.776C171.59 53.6194 170.513 54.3664 169.137 55.0143C167.766 55.6703 166.237 55.9996 164.553 55.9996C160.398 55.9996 157.239 54.8055 155.075 52.4119C152.912 50.013 151.83 46.4039 151.83 41.5846V17.7347Z" fill="#F83758"/>
<path d="M180.75 33.7781C179.62 31.4595 178.44 29.0659 177.205 26.6028C175.976 24.1396 174.94 21.6603 174.1 19.1597C173.256 16.6617 172.836 14.2521 172.836 11.9308C172.836 9.74606 173.28 7.8478 174.175 6.23335C175.074 4.61354 176.234 3.3525 177.655 2.45291C179.082 1.55331 180.59 1.10352 182.175 1.10352C183.687 1.10352 185.136 1.55331 186.523 2.45291C187.915 3.3525 189.061 4.61354 189.96 6.23335C190.86 7.8478 191.31 9.74606 191.31 11.9308C191.31 14.2521 190.876 16.6724 190.014 19.1918C189.149 21.7059 188.11 24.1931 186.897 26.6563C185.682 29.1195 184.512 31.4943 183.385 33.7781C182.962 34.6563 182.523 35.0954 182.068 35.0954C181.644 35.0954 181.205 34.6563 180.75 33.7781ZM182.121 56.0003C179.658 56.0003 177.677 55.2533 176.177 53.762C174.683 52.2626 173.939 50.2814 173.939 47.8182C173.939 45.355 174.683 43.3791 176.177 41.8852C177.677 40.3858 179.658 39.6362 182.121 39.6362C184.547 39.6362 186.507 40.3858 188.001 41.8852C189.5 43.3791 190.25 45.355 190.25 47.8182C190.25 50.2814 189.5 52.2626 188.001 53.762C186.507 55.2533 184.547 56.0003 182.121 56.0003Z" fill="#F83758"/>
</svg>
